<svg xmlns="http://www.w3.org/2000/svg" xmlns:xlink="http://www.w3.org/1999/xlink" width="500" zoomAndPan="magnify" viewBox="0 0 375 374.999991" height="500" preserveAspectRatio="xMidYMid meet" version="1.0"><defs><clipPath id="e16451c29c"><path d="M 0.75 46.503906 L 374.25 46.503906 L 374.25 328.503906 L 0.75 328.503906 Z M 0.75 46.503906 " clip-rule="nonzero"/></clipPath></defs><g clip-path="url(#e16451c29c)"><path fill="#ffffff" d="M 373.597656 176.210938 C 372.441406 166.421875 370.039062 156.945312 366.390625 147.789062 L 364.097656 142.570312 C 363.226562 140.835938 362.519531 138.949219 361.523438 137.285156 L 359.734375 134.007812 C 359.167969 132.890625 358.507812 131.914062 357.855469 130.824219 C 355.359375 126.59375 352.601562 122.542969 349.570312 118.675781 L 344.441406 112.453125 C 343.039062 110.871094 341.75 109.230469 340.246094 107.738281 L 333.871094 101.363281 C 333.433594 100.925781 332.96875 100.515625 332.480469 100.132812 C 332.003906 99.734375 331.714844 99.328125 331.25 98.917969 L 312.519531 84.292969 C 308.984375 81.9375 305.386719 79.582031 301.703125 77.472656 C 301.160156 77.164062 300.671875 76.824219 300.0625 76.492188 L 295.234375 73.8125 C 291.242188 71.835938 287.335938 69.527344 283.207031 67.851562 C 282.082031 67.394531 280.859375 66.8125 279.695312 66.300781 C 277.324219 65.261719 274.890625 64.148438 272.421875 63.269531 L 265.039062 60.519531 C 263.832031 60.117188 262.628906 59.65625 261.289062 59.210938 L 253.457031 56.734375 C 243.886719 53.96875 234.195312 51.726562 224.382812 50.011719 C 221.644531 49.554688 218.460938 49.003906 215.585938 48.679688 C 212.0625 48.285156 200.480469 46.886719 196.910156 46.921875 C 195.832031 46.929688 195.566406 46.765625 194.648438 46.738281 C 193.792969 46.714844 192.867188 46.789062 192.023438 46.746094 C 187.515625 46.5 182.753906 46.570312 178.226562 46.570312 C 174.34375 46.570312 171.027344 46.808594 167.21875 46.914062 L 156.839844 47.890625 C 154.492188 48.222656 152.226562 48.421875 149.941406 48.679688 C 147.824219 48.917969 145.554688 49.273438 143.390625 49.636719 C 134.894531 51.0625 126.628906 52.882812 118.351562 54.988281 C 116.375 55.492188 114.347656 56.160156 112.375 56.699219 C 103.4375 59.148438 90.839844 64.0625 82.28125 68.34375 C 79.769531 69.597656 77.136719 70.699219 74.726562 72.140625 C 71.53125 74.054688 68.203125 75.675781 65.082031 77.691406 C 58.230469 82.121094 51.292969 86.582031 45.183594 92.023438 L 32.523438 103.984375 C 32.207031 104.3125 31.914062 104.660156 31.644531 105.027344 L 21.363281 117.625 C 21.066406 118.027344 20.894531 118.332031 20.589844 118.773438 L 18.257812 122.203125 C 17.292969 123.816406 16.265625 125.261719 15.339844 126.96875 C 14.871094 127.824219 14.46875 128.460938 14 129.296875 C 13.738281 129.765625 13.597656 130.144531 13.351562 130.570312 C 13.105469 130.992188 12.898438 131.3125 12.660156 131.796875 C 12.230469 132.664062 11.839844 133.445312 11.378906 134.359375 C 9.21875 138.738281 7.382812 143.246094 5.871094 147.890625 C 3.863281 153.902344 2.441406 160.046875 1.601562 166.328125 C 1.476562 167.28125 1.265625 168.699219 1.160156 169.726562 C 0.90625 172.183594 0.921875 174.324219 0.785156 176.859375 L 0.96875 187.851562 C 1.582031 195.957031 3.367188 205.332031 6.175781 213.039062 C 8.175781 218.539062 9.96875 224.078125 12.601562 229.316406 L 15.164062 234.4375 C 17.214844 238.566406 19.523438 242.546875 22.089844 246.375 C 22.363281 246.78125 22.558594 247.070312 22.84375 247.542969 C 23.15625 248.066406 23.304688 248.199219 23.628906 248.679688 L 26.773438 253.222656 C 27.296875 253.988281 27.765625 254.582031 28.328125 255.332031 L 37.765625 266.851562 C 38.085938 267.210938 38.378906 267.464844 38.730469 267.8125 L 53.21875 281.789062 L 60.632812 287.816406 C 67.007812 293.023438 74.121094 297.300781 81.195312 301.488281 L 91.074219 306.804688 C 91.933594 307.226562 92.835938 307.59375 93.695312 308.023438 C 95.375 308.863281 97.042969 309.578125 98.820312 310.410156 C 100.664062 311.273438 102.332031 311.871094 104.222656 312.691406 C 107.863281 314.261719 111.59375 315.441406 115.25 316.859375 C 123.796875 320.167969 142.503906 324.550781 151.859375 325.832031 L 170.546875 327.925781 C 171.175781 327.976562 171.808594 327.890625 172.433594 327.960938 C 175.765625 328.332031 181.546875 328.078125 183.414062 328.332031 C 184.625 328.503906 185.839844 328.519531 187.054688 328.386719 C 189.171875 328.066406 195.367188 328.414062 198.03125 328.007812 L 201.625 327.761719 C 206.222656 327.542969 210.960938 327 215.433594 326.375 C 217.683594 326.058594 220.015625 325.714844 222.109375 325.363281 C 230.5 323.988281 238.78125 322.144531 246.960938 319.824219 C 255.898438 317.28125 270.484375 312.234375 278.996094 308.027344 L 291.570312 301.738281 C 294.484375 300.222656 297.289062 298.507812 300.09375 296.8125 C 306.339844 293.03125 312.371094 288.933594 318.191406 284.523438 C 321.074219 282.347656 323.761719 279.953125 326.597656 277.738281 C 328.53125 276.226562 330.859375 273.746094 332.585938 272.371094 L 335.539062 269.738281 C 338.492188 267.003906 341.222656 263.976562 344.007812 261.09375 L 345.808594 259.050781 C 346.398438 258.289062 346.957031 257.710938 347.574219 256.976562 C 363.492188 238.058594 374.175781 213.664062 374.175781 188.390625 C 374.230469 184.320312 374.039062 180.257812 373.597656 176.210938 Z M 248.394531 59.527344 C 251.992188 60.503906 255.308594 62.082031 258.335938 64.257812 C 258.894531 64.671875 259.488281 65.113281 259.996094 65.566406 L 264.628906 69.839844 C 267.902344 73.171875 269.765625 73.070312 270.085938 79.054688 C 270.429688 85.511719 266.429688 90.890625 263.738281 96.285156 C 259.554688 104.683594 259.644531 106.816406 253.242188 115.308594 C 252.394531 116.433594 251.582031 117.648438 250.839844 118.839844 C 248.527344 122.535156 246.121094 125.859375 243.941406 129.757812 L 241.792969 133.546875 L 242.988281 126.710938 C 244.046875 120.480469 245.097656 110.539062 241.671875 105.898438 C 239.839844 103.417969 237.351562 102.035156 234.605469 100.910156 L 220.308594 94.773438 C 220.886719 92.308594 226.609375 81.703125 227.996094 78.882812 C 228.308594 78.253906 228.546875 77.585938 228.867188 76.957031 L 233.828125 67.074219 C 235.003906 65.125 237.171875 61.859375 238.773438 60.320312 C 241.097656 58.085938 245.414062 58.792969 248.394531 59.527344 Z M 146.648438 80.066406 L 147.65625 83.769531 C 146.75 83.84375 143.933594 84.921875 142.574219 85.320312 C 136.238281 87.195312 130.890625 85.78125 130.890625 93.726562 L 131.546875 106.351562 C 131.597656 107.050781 131.582031 107.746094 131.496094 108.445312 L 131.421875 110.296875 C 131.96875 118.304688 131.515625 124.476562 133.6875 132.324219 C 134.441406 135.054688 135.539062 137.648438 136.457031 140.203125 C 138.570312 146.082031 138.246094 144.652344 140.613281 149.324219 C 141.730469 151.527344 145.742188 156.09375 147.601562 158.402344 C 148.035156 158.9375 148.570312 159.457031 148.878906 159.917969 C 147.765625 160.011719 146.621094 160.703125 145.5625 160.792969 C 145.429688 159.277344 145.09375 157.8125 144.546875 156.394531 C 143.632812 154.132812 139.867188 153.6875 136.902344 153.03125 C 132.660156 152.097656 131.316406 151.515625 127.675781 153.910156 C 126.386719 154.757812 125.140625 155.425781 123.90625 156.25 C 121.160156 152.152344 116.9375 147.65625 112.097656 146.054688 C 107.902344 144.664062 103.144531 143.679688 100.734375 148.273438 C 99.726562 150.195312 98.695312 151.914062 97.859375 153.953125 L 95.632812 160.285156 C 94.992188 162.800781 94.636719 165.355469 94.566406 167.949219 C 93.308594 167.347656 76.496094 164.550781 76.488281 164.546875 C 75.804688 164.199219 76.515625 164.632812 76.75 163.757812 C 73.558594 160.085938 72.285156 156.996094 69.660156 153.207031 C 68.824219 152 68 150.898438 67.144531 149.785156 C 64.738281 146.640625 63.226562 145.453125 64.324219 141.902344 C 65.257812 139.058594 66.535156 136.375 68.15625 133.855469 C 68.90625 132.660156 69.785156 131.773438 70.5625 130.5 C 71.757812 128.546875 72.574219 126.820312 74.375 125.40625 C 74.941406 124.953125 75.558594 124.582031 76.222656 124.285156 C 77.535156 123.636719 78.917969 123.011719 80.238281 122.363281 C 81.558594 121.714844 82.953125 121.191406 84.371094 120.558594 C 91.648438 117.324219 94.742188 117.785156 99.203125 111.8125 C 105.34375 103.589844 105.628906 105.074219 111.667969 94.585938 C 112.925781 92.402344 115.828125 87.605469 117.570312 85.816406 C 118.140625 85.234375 118.402344 84.804688 118.964844 84.246094 C 124.101562 79.136719 130.460938 75.480469 137.152344 72.742188 C 138.496094 72.191406 139.894531 71.585938 141.304688 70.957031 C 142.679688 70.285156 144.09375 69.722656 145.558594 69.273438 C 143.390625 73.378906 145.40625 75.191406 146.648438 80.066406 Z M 221.183594 189.785156 L 211.25 186.96875 C 208.933594 186.265625 206.792969 185.203125 204.835938 183.777344 L 201.023438 181.125 C 196.296875 177.707031 195.460938 177.699219 191.023438 175.058594 C 189.960938 174.425781 187.984375 173.121094 186.777344 172.84375 L 187.480469 165.863281 C 187.773438 161.585938 189.273438 148.453125 190.023438 145.175781 C 191.46875 139.195312 193.378906 133.363281 195.757812 127.683594 C 198.289062 121.359375 202.136719 111.964844 204.996094 106.011719 C 205.441406 105.09375 205.773438 104.234375 206.167969 103.335938 C 206.941406 101.574219 209.027344 96.558594 210.125 95.59375 C 212.722656 93.3125 229.53125 101.726562 232.757812 103.109375 C 236.359375 104.65625 239.601562 105.957031 240.75 110.488281 C 241.230469 112.847656 241.457031 115.234375 241.433594 117.644531 C 241.238281 119.964844 241.167969 122.394531 240.84375 124.742188 L 239.242188 136.765625 L 238.085938 141.371094 C 237.800781 142.378906 237.496094 143.375 237.140625 144.441406 C 236.351562 146.707031 235.253906 148.816406 233.859375 150.765625 L 228.832031 159.183594 C 227.847656 160.917969 227.035156 162.726562 226.398438 164.613281 C 225.722656 166.484375 225.167969 168.398438 224.574219 170.472656 C 223.96875 172.601562 223.433594 174.589844 222.96875 176.726562 C 222.433594 179.207031 221.234375 185.730469 221.085938 188.089844 C 221.066406 188.414062 221.183594 189.003906 221.183594 189.785156 Z M 173.355469 103.484375 C 173.097656 102.714844 172.109375 100.160156 172.109375 99.488281 C 172.109375 98.765625 174.742188 96.738281 176.164062 94.988281 C 176.523438 94.546875 176.753906 94.28125 177.117188 93.847656 C 178.769531 91.878906 180.679688 90.648438 182.859375 88.933594 C 184.738281 87.460938 188.46875 83.769531 190.621094 83.769531 C 193.820312 83.769531 197.589844 92.105469 198.945312 94.832031 C 200.777344 98.515625 201.445312 100.015625 202.492188 104.226562 C 202.714844 105.125 201.195312 107.792969 200.808594 108.628906 C 197.023438 116.753906 190.273438 133.445312 188.140625 141.195312 C 187.167969 144.769531 186.488281 148.402344 186.109375 152.085938 L 185.554688 158.171875 C 184.8125 157.910156 184.230469 157.445312 183.808594 156.777344 C 183.363281 156.148438 182.976562 155.617188 182.515625 154.925781 C 182.058594 154.230469 181.722656 153.730469 181.261719 153.039062 C 180.816406 152.421875 180.402344 151.785156 180.023438 151.128906 C 177.488281 146.375 176.652344 141.871094 175.675781 136.445312 C 174.148438 127.949219 173.679688 126.773438 173.679688 117.132812 C 173.679688 112.085938 175.101562 108.679688 173.355469 103.484375 Z M 211.402344 92.503906 C 211.523438 90.203125 211.195312 87.96875 210.421875 85.800781 C 209.953125 84.152344 209.585938 82.480469 209.324219 80.785156 C 208.699219 77.957031 207.847656 75.203125 206.761719 72.519531 C 206.589844 72.097656 206.492188 71.714844 206.339844 71.371094 C 206.878906 71.628906 210.863281 71.59375 211.78125 71.691406 L 224.851562 73.464844 C 225.714844 73.667969 226.585938 73.785156 227.472656 73.816406 C 227.238281 74.8125 223.21875 82.84375 222.816406 83.65625 C 221.546875 86.222656 218.777344 91.332031 218.566406 93.902344 C 217.222656 93.898438 214.34375 92.503906 211.402344 92.503906 Z M 206.964844 80.699219 C 207.976562 85.304688 208.328125 85.828125 209.308594 89.535156 C 209.503906 90.273438 209.753906 92.15625 210.007812 92.679688 C 207.683594 93.21875 205.761719 97.347656 204.839844 99.566406 L 203.90625 101.769531 C 203.855469 101.878906 203.785156 102.027344 203.734375 102.121094 L 203.546875 102.457031 C 203.546875 99.546875 201.609375 95.4375 200.34375 92.910156 C 198.484375 89.183594 195.519531 81.324219 190.449219 81.324219 C 187.65625 81.324219 184.105469 84.761719 181.597656 86.796875 C 178.171875 89.566406 176.953125 89.972656 174.007812 93.703125 C 172.308594 95.859375 169.667969 97.289062 169.667969 99.140625 C 169.667969 100.617188 170.414062 102.191406 170.824219 103.394531 C 172.710938 108.933594 171.238281 110.914062 171.238281 116.429688 C 171.238281 126.410156 171.621094 129.1875 173.492188 138.628906 C 173.871094 140.546875 174.3125 142.464844 174.6875 144.246094 C 175.300781 147.117188 176.992188 151.285156 178.644531 153.5625 C 179.207031 154.335938 182.40625 158.777344 182.957031 159.203125 C 183.667969 159.6875 184.421875 160.097656 185.210938 160.445312 L 185.023438 164.625 C 184.972656 165.277344 184.878906 165.238281 184.855469 166.03125 C 184.796875 167.96875 184.859375 170.023438 184.859375 171.972656 C 181.804688 170.359375 176.726562 170.804688 174.929688 170.203125 C 174.21875 169.964844 173.136719 168.972656 172.429688 168.511719 C 169.488281 166.601562 169.375 166.089844 165.851562 164.789062 L 159.648438 162.078125 C 157.613281 161.046875 155.882812 159.703125 153.5 159.3125 C 152.5 159.148438 151.878906 159.398438 150.804688 159.398438 C 150.363281 157.511719 145.8125 152.289062 144.363281 150.46875 C 142.808594 148.515625 143.335938 148.902344 142.347656 147.246094 C 141.695312 146.171875 141.121094 145.058594 140.621094 143.90625 C 138.460938 138.898438 134.957031 129.144531 134.734375 123.945312 L 134.207031 116.785156 C 134.21875 115.664062 134.082031 115.214844 134.03125 114.339844 C 133.90625 111.980469 134.109375 109.050781 134.039062 106.648438 C 134.011719 105.71875 133.847656 105.335938 133.855469 104.210938 C 133.871094 101.894531 132.699219 92.777344 133.761719 90.839844 C 134.171875 90.148438 134.761719 89.691406 135.53125 89.464844 C 138.242188 88.546875 141.808594 88.402344 145.683594 86.867188 C 149.601562 85.316406 150.761719 85.246094 154.742188 86.117188 L 164.390625 88.195312 C 164.855469 88.3125 166.023438 88.769531 165.195312 87.753906 C 164.066406 86.363281 153.683594 83.25 150.972656 83.25 C 150.261719 83.167969 149.566406 83.226562 148.878906 83.425781 C 148.410156 81.425781 148.628906 79.214844 147.632812 76.289062 C 147.234375 75.1875 146.964844 74.054688 146.820312 72.894531 C 146.710938 71.894531 147.484375 70.585938 147.902344 69.878906 C 148.871094 68.109375 150.054688 66.496094 151.453125 65.046875 C 155.675781 60.804688 161.105469 59.488281 167.042969 59.5 C 174.878906 59.519531 180.59375 56.878906 185.726562 56.878906 C 187.949219 56.972656 190.140625 57.285156 192.296875 57.820312 C 194.714844 58.425781 195.457031 59.203125 196.949219 60.679688 C 198.410156 62.125 198.925781 63.339844 199.933594 65.207031 C 203.011719 70.917969 205.304688 73.15625 206.964844 80.699219 Z M 148.53125 250.039062 C 149.550781 249.765625 152.121094 245.765625 153.027344 244.753906 C 153.578125 244.132812 153.964844 243.542969 154.515625 242.921875 C 157.363281 239.726562 160.730469 235.355469 163.300781 231.800781 C 164.28125 230.445312 165.070312 229.265625 166.070312 227.933594 C 168.039062 225.449219 170.34375 223.328125 172.980469 221.570312 C 175.285156 222.789062 177.53125 224.15625 179.90625 225.296875 C 186.152344 228.296875 187.792969 227.777344 194.085938 232.425781 L 197.082031 234.667969 C 198.105469 235.566406 199.269531 236.207031 200.574219 236.589844 C 200.101562 237.296875 199.371094 237.8125 198.753906 238.613281 C 197.53125 240.195312 196.84375 240.585938 195.335938 242.878906 C 193.804688 245.207031 192.011719 247.628906 190.628906 250.046875 C 189.832031 251.445312 188.175781 253.796875 188.175781 255.453125 C 189.460938 255.109375 194.859375 247.066406 195.960938 245.597656 L 201.839844 238.378906 C 203.921875 236.039062 203.089844 236.414062 206.511719 236.414062 C 209.601562 236.414062 213.40625 238.832031 216 240.375 L 220.308594 242.878906 C 224.703125 245.066406 227.199219 245.585938 230.265625 249.863281 C 231.402344 251.445312 233.664062 255.070312 233.097656 257.046875 L 229.617188 267.03125 C 228.363281 270.1875 226.84375 273.207031 225.054688 276.09375 C 224.203125 277.496094 223.5 279.050781 222.695312 280.546875 C 221.484375 282.792969 220.296875 284.898438 219.257812 287.238281 C 218.953125 287.921875 218.5 288.875 218.097656 289.570312 C 217.382812 290.808594 215.871094 292.105469 214.851562 293.132812 C 214.179688 293.910156 213.371094 294.5 212.429688 294.90625 C 211.488281 295.3125 210.503906 295.492188 209.480469 295.449219 C 205.484375 295.449219 198.613281 294.609375 195.105469 293.230469 C 191.125 291.664062 187.539062 289.890625 183.746094 288 C 181.285156 286.769531 181.441406 286.363281 180.105469 284.476562 C 179.207031 283.207031 179.367188 283.777344 180.253906 280.714844 L 183.171875 271.0625 C 183.609375 269.589844 185.03125 265.859375 185.03125 264.535156 C 185.03125 263.878906 184.453125 263.921875 184.085938 264.261719 C 183.175781 265.097656 180.578125 272.042969 180.074219 273.554688 C 179.078125 276.542969 178 279.144531 177.457031 282.285156 C 177.273438 283.34375 177.269531 283.75 174.902344 283.75 C 171.894531 283.75 168.148438 282.140625 165.539062 281.058594 C 160.257812 278.855469 153.664062 274.496094 148.824219 272.800781 C 148.269531 272.605469 147.652344 272.667969 147.652344 272.046875 C 147.652344 267.351562 149.75 261.21875 149.75 257.203125 C 149.75 256.582031 148.824219 255.585938 147.652344 259.820312 C 147.300781 261.09375 147.019531 262.160156 146.707031 263.589844 C 146.035156 266.683594 145.558594 268.515625 145.558594 271.871094 C 144.808594 271.515625 142.144531 271.0625 141.191406 270.824219 C 139.765625 270.476562 138.386719 269.992188 137.058594 269.371094 C 136.375 269.050781 135.992188 268.820312 135.28125 268.527344 L 129.429688 265.996094 C 126.855469 264.757812 124.5625 263.636719 122.039062 262.382812 C 120.75 261.746094 119.683594 261.074219 118.429688 260.402344 C 112.511719 257.324219 107.015625 253.625 101.933594 249.304688 C 98.976562 246.71875 95.628906 244.597656 92.859375 241.789062 C 92.632812 241.546875 92.382812 241.328125 92.117188 241.132812 C 91.292969 240.492188 90.488281 239.835938 89.320312 239.738281 C 89.320312 237.757812 89.320312 235.777344 89.320312 233.800781 C 89.320312 230.96875 90.152344 223.105469 91.183594 220.640625 C 91.605469 219.625 92.640625 219.507812 92.640625 218.953125 C 92.640625 217.996094 91.507812 218.3125 91.066406 218.59375 C 90.480469 218.96875 90.054688 219.472656 89.78125 220.109375 C 88.25 223.304688 87.050781 230.140625 87.050781 233.800781 L 87.226562 239.390625 C 84.867188 239.195312 80.140625 236.40625 78.359375 234.636719 L 76.621094 233.054688 C 76.378906 232.71875 76.113281 232.402344 75.835938 232.097656 C 74.464844 230.710938 72.9375 228.921875 71.433594 227.761719 C 71.132812 227.546875 70.851562 227.300781 70.59375 227.03125 L 66.050781 222.84375 C 64.007812 220.800781 62.847656 219.984375 61.320312 217.265625 C 60.441406 215.367188 59.996094 213.367188 59.980469 211.273438 C 59.980469 208.238281 62.398438 204.019531 63.878906 201.546875 L 67.214844 195.628906 C 68.742188 193.132812 71.125 189.503906 73.546875 188.160156 C 82.394531 183.253906 83.128906 185.773438 87.800781 184.066406 C 88.492188 183.8125 88.691406 183.960938 89.472656 184.21875 C 91.839844 185.003906 100.910156 187.808594 102.246094 187.167969 L 102.039062 188.5625 C 101.894531 189.601562 102.613281 191.390625 103.039062 191.964844 C 104.433594 193.851562 109.332031 194.71875 111.761719 195.46875 C 112.59375 195.726562 112.109375 195.304688 112.546875 195.902344 C 111.164062 196.273438 108.914062 198.445312 107.679688 199.417969 C 107.054688 199.914062 106.675781 200.34375 106.085938 200.792969 C 104.3125 202.144531 101.371094 205.308594 101.371094 207.953125 C 101.371094 208.621094 101.316406 208.015625 101.546875 208.480469 C 102.402344 208.40625 102.457031 207.675781 103.414062 206.503906 C 104.335938 205.445312 105.332031 204.460938 106.394531 203.546875 C 106.871094 203.101562 107.003906 202.976562 107.511719 202.566406 L 109.714844 200.75 C 111.171875 199.554688 112.699219 198.464844 114.304688 197.480469 C 115.503906 196.761719 115.621094 196.488281 117.089844 196.585938 C 120.128906 196.789062 120.179688 197.722656 124.429688 196.601562 C 127.429688 195.808594 128.40625 195.40625 131.40625 196.957031 C 132.46875 197.507812 135.863281 200.785156 136.953125 201.886719 C 138.683594 203.628906 140.976562 205.03125 143.058594 206.261719 C 147.832031 209.082031 151.441406 211.515625 156.386719 214.066406 C 157.328125 214.550781 158.15625 215.152344 159.125 215.695312 C 160.902344 216.6875 163.089844 217.324219 165.183594 218.015625 L 171.230469 220.527344 C 170.378906 221.6875 167.226562 221.742188 161.417969 230.273438 C 158.796875 234.121094 155.6875 237.773438 152.894531 241.484375 C 151.652344 243.136719 148.003906 247.542969 148.53125 250.039062 Z M 72.757812 250.585938 C 70.675781 251.273438 62.894531 253.882812 61.035156 253.882812 C 59.003906 253.882812 54.222656 249.5 54.222656 246.546875 C 54.222656 243.671875 54.746094 242.703125 56.972656 240.558594 C 59.167969 238.449219 59.367188 238.839844 62.460938 239.183594 C 64.601562 239.421875 73.972656 239.03125 77.453125 239.207031 C 78.871094 239.28125 79.738281 239.363281 80.199219 240.132812 C 80.347656 240.402344 80.480469 240.675781 80.597656 240.957031 C 81.101562 242.207031 81.507812 243.488281 81.820312 244.800781 C 80.808594 246.304688 75.066406 249.828125 72.757812 250.585938 Z M 89.554688 252.953125 C 89.933594 252.988281 90.292969 253.097656 90.625 253.28125 C 91.773438 253.960938 91.144531 256.457031 90.871094 257.34375 C 90.132812 259.726562 83.222656 264.398438 80.65625 265.644531 C 79.027344 266.433594 76.792969 266.816406 74.941406 267.4375 C 73 268.085938 71.480469 268.757812 69.621094 269.453125 C 67.753906 270.152344 67.164062 270.03125 64.5 268.054688 C 62.03125 266.21875 60.5625 265.398438 58.941406 262.609375 C 58.65625 262.117188 57.890625 260.5 57.890625 259.820312 C 57.890625 258.308594 59.457031 257.808594 60.566406 257.257812 C 63.410156 255.84375 61.3125 256.585938 64.527344 255.804688 C 67.421875 255.101562 70.007812 254.242188 72.714844 253.335938 C 74.03125 252.894531 75.019531 252.125 76.824219 252.410156 C 79.355469 252.808594 84.976562 252.09375 89.554688 252.953125 Z M 76.457031 167.199219 C 80.722656 167.8125 93.988281 170.230469 97.035156 171.246094 C 98.417969 171.675781 99.769531 172.1875 101.089844 172.78125 C 105.386719 174.828125 104.652344 178.472656 105.21875 179.652344 C 102.226562 181.660156 102.601562 184.96875 102.351562 185.71875 C 102.113281 186.453125 102.664062 186.074219 99.777344 184.917969 L 89.773438 181.652344 C 86.953125 180.832031 82.886719 179.179688 80.21875 178.109375 C 78.300781 177.335938 72.210938 174.953125 72.210938 172.84375 C 72.210938 170.199219 73.992188 167.429688 74.132812 166.90625 C 74.914062 166.953125 75.6875 167.050781 76.457031 167.199219 Z M 74.832031 164.285156 L 74.882812 164.335938 C 74.878906 164.332031 74.816406 164.300781 74.832031 164.285156 Z M 110.6875 170.007812 C 110.855469 173.195312 112.0625 174.222656 112.902344 175.808594 C 110.207031 175.808594 108.101562 177.496094 106.441406 178.605469 C 106.585938 176.890625 107.015625 176.410156 105.511719 173.597656 C 104.988281 172.558594 104.214844 171.757812 103.195312 171.195312 C 102.113281 170.488281 97.933594 168.597656 96.488281 168.476562 L 97.742188 162.222656 C 98.804688 157.976562 100.445312 153.96875 102.65625 150.191406 C 103.613281 148.46875 103.824219 147.515625 106.269531 147.515625 C 108.121094 147.605469 109.914062 147.964844 111.660156 148.589844 C 113.164062 149.144531 114.542969 149.917969 115.804688 150.90625 C 117 151.839844 121.378906 156.300781 122.164062 157.472656 C 121.105469 159.050781 114.890625 163.109375 113.296875 164.671875 C 112.140625 165.800781 110.570312 167.824219 110.6875 170.007812 Z M 128.449219 183.84375 C 125.609375 183.183594 122.476562 185.191406 120.066406 186.464844 C 118.480469 185.402344 118.882812 185.1875 116.070312 184.167969 C 115.351562 183.910156 114.429688 183.691406 113.605469 183.492188 C 110.355469 182.695312 111.019531 184.328125 112.5 184.945312 C 113.175781 185.230469 113.4375 185.347656 114.066406 185.648438 C 119.601562 188.328125 117.554688 187.316406 118.988281 192.078125 C 119.234375 192.886719 119.273438 193.035156 119.890625 193.449219 C 120.824219 192.953125 120.9375 192.511719 120.9375 190.828125 C 120.960938 189.878906 120.84375 188.949219 120.585938 188.035156 C 121.875 187.734375 123.273438 186.789062 124.453125 186.3125 L 128.269531 184.539062 C 127.890625 185.972656 127.65625 187.425781 127.574219 188.90625 C 127.574219 190.007812 127.773438 192.601562 128.097656 193.273438 C 125.304688 193.273438 123.414062 194.671875 120.9375 194.671875 C 119.75 194.671875 120.078125 193.621094 118.492188 193.621094 C 117.574219 193.621094 115.652344 193.84375 114.402344 193.519531 L 107.421875 191.421875 C 105.023438 190.628906 104.871094 190.660156 104.871094 188.558594 C 104.875 187.113281 105.011719 185.683594 105.289062 184.265625 C 105.597656 182.691406 106.148438 182.222656 107.164062 181.421875 C 114.195312 175.871094 115.578125 179.222656 120.761719 179.480469 C 121.851562 179.535156 122.707031 179.488281 123.605469 179.605469 C 125.46875 179.847656 127.121094 179.878906 128.824219 180.160156 C 130.425781 180.429688 129.160156 180.785156 128.449219 183.84375 Z M 127.851562 177.628906 C 125.070312 177.140625 117.058594 176.113281 115.390625 174.550781 C 113.300781 172.597656 112.445312 169.335938 114.867188 166.945312 C 116.339844 165.597656 117.894531 164.359375 119.542969 163.238281 L 121.914062 161.417969 C 122.675781 160.824219 123.386719 160.085938 124.136719 159.445312 C 125.367188 158.390625 130.671875 154.851562 132.121094 154.851562 C 133.425781 154.960938 134.710938 155.1875 135.972656 155.539062 C 137.875 155.894531 139.753906 156.34375 141.609375 156.890625 C 142.136719 157.171875 142.460938 157.605469 142.578125 158.191406 C 142.796875 158.785156 142.929688 159.375 143.101562 159.941406 C 143.355469 160.550781 143.535156 161.183594 143.644531 161.839844 C 142.074219 162.679688 140.550781 163.601562 139.070312 164.597656 C 135.976562 166.660156 133.570312 168.839844 132.015625 172.566406 C 131.621094 173.511719 131.398438 174.289062 131.023438 175.234375 C 130.632812 176.210938 130.359375 177.21875 130.203125 178.257812 C 129.339844 178.058594 128.894531 177.8125 127.851562 177.628906 Z M 108.851562 94.214844 C 108.144531 95.398438 107.554688 96.433594 106.847656 97.625 C 105.335938 100.074219 103.613281 102.371094 101.6875 104.511719 C 101.375 104.859375 101.378906 104.945312 101.070312 105.292969 C 100.589844 105.832031 100.242188 106.242188 99.765625 106.785156 C 98.105469 108.683594 96.789062 111.152344 94.894531 112.738281 C 92.230469 114.96875 91.289062 114.980469 87.78125 116.28125 C 85.75 117.03125 74.523438 121.785156 72.960938 123.117188 C 69.570312 126.015625 69.28125 127.929688 68.195312 129.179688 C 68.230469 127.511719 71.050781 119.5 63.265625 121.28125 C 62.070312 121.554688 60.433594 122.289062 59.464844 122.367188 C 61.570312 119.21875 77.414062 107.71875 80.910156 105.390625 L 91.105469 98.996094 L 103.535156 92.214844 C 104.214844 91.871094 104.632812 91.597656 105.335938 91.21875 C 106.890625 90.390625 111.183594 87.753906 112.90625 87.609375 Z M 65.75 123.589844 C 67.53125 123.589844 65.484375 132.648438 65.203125 133.523438 C 64.796875 134.804688 64.640625 133.632812 63.683594 135.148438 C 62.738281 136.644531 59.902344 142.277344 58.589844 142.277344 C 57.1875 142.277344 49.804688 135.15625 52.417969 130.34375 C 54.058594 127.3125 62.152344 123.589844 65.75 123.589844 Z M 51.953125 139.832031 C 52.410156 140.476562 52.890625 140.980469 53.351562 141.582031 C 54.367188 142.898438 57.128906 145.441406 59.15625 144.953125 C 59.921875 144.738281 60.605469 144.371094 61.210938 143.851562 C 61.210938 146.679688 62.925781 148.152344 63.128906 148.914062 C 61.089844 148.871094 58.582031 147.238281 55.410156 149.226562 C 54.496094 149.878906 53.679688 150.632812 52.960938 151.492188 C 51.253906 153.414062 50.570312 155.886719 49.25 157.386719 C 49.160156 157.476562 49.085938 157.574219 49.023438 157.6875 C 48.371094 158.652344 47.675781 158.8125 46.191406 159.21875 C 43.691406 159.910156 41.140625 160.65625 38.644531 161.28125 C 32.621094 162.785156 30.003906 164.015625 33.757812 169.730469 C 35.101562 171.785156 34.433594 172.195312 32.972656 174.644531 C 31.023438 177.917969 31.363281 176.929688 29.949219 178.78125 C 29.210938 179.75 26.953125 181.828125 25.929688 182.101562 L 28.835938 171.554688 C 30.636719 166.070312 32.8125 160.734375 35.363281 155.550781 C 37.558594 151.15625 39.164062 147.972656 41.640625 143.839844 C 42.484375 142.429688 47.757812 134.308594 49.160156 133.367188 C 49.878906 136.453125 49.882812 136.894531 51.953125 139.832031 Z M 29.773438 182.625 C 31.691406 181.144531 30.984375 180.769531 33.464844 180.027344 C 34.082031 179.839844 34.417969 179.664062 34.992188 179.457031 C 36.019531 179.085938 40.578125 177.75 40.496094 176.640625 C 40.457031 176.082031 39.777344 176.453125 39.132812 176.605469 C 38.390625 176.78125 38.078125 176.859375 37.457031 177.035156 C 36.414062 177.328125 35.273438 177.882812 34.140625 177.90625 C 34.425781 176.832031 35.382812 175.820312 35.941406 174.816406 C 36.714844 173.429688 37.109375 173.195312 37.109375 171.097656 C 38.183594 171.613281 40.5625 171.953125 42.175781 171.964844 C 43.152344 171.972656 46.683594 172.523438 47.066406 171.097656 C 46.203125 170.683594 37.910156 169.523438 36.585938 169.523438 C 36.011719 168.4375 34.664062 166.816406 34.664062 165.332031 C 35.175781 165.195312 36.621094 164.535156 38.191406 164.144531 C 41.386719 163.355469 46.507812 162.238281 49.160156 160.964844 C 49.175781 161.570312 49.285156 161.648438 49.324219 162.199219 C 49.441406 163.839844 50.058594 169.667969 51.957031 169.699219 C 53.304688 169.382812 52.878906 168.457031 52.582031 167.152344 L 51.355469 161.039062 C 50.929688 159.046875 51.015625 159.910156 51.855469 158.425781 C 53.355469 155.78125 55.09375 150.742188 58.761719 150.648438 C 60.921875 150.640625 63.023438 150.988281 65.0625 151.703125 C 65.851562 151.96875 66.296875 152.980469 66.765625 153.667969 L 72.664062 162.441406 C 73.265625 163.125 73.929688 163.738281 74.65625 164.289062 C 73.789062 164.285156 73.042969 164.585938 72.421875 165.195312 C 71.816406 165.769531 71.398438 166.457031 71.164062 167.257812 C 69.882812 166.914062 69.863281 166.597656 67.257812 167.367188 C 64.929688 168.058594 62.375 168.675781 60.214844 169.753906 C 59.011719 170.355469 58.589844 171.402344 58.066406 172.496094 L 54.0625 172.144531 C 50.25 172.054688 49.789062 172.644531 48.039062 175.5625 C 47.707031 176.097656 47.460938 176.667969 47.296875 177.273438 C 46.953125 178.285156 46.898438 178.359375 47.414062 179.132812 C 48.484375 179.042969 48.738281 177.910156 49.261719 177.136719 C 49.742188 176.300781 50.335938 175.558594 51.046875 174.90625 C 52.085938 174.121094 54.132812 174.097656 55.796875 174.070312 C 56.75 174.054688 56.855469 173.894531 57.71875 173.894531 C 57.71875 175.105469 57.367188 176.421875 57.363281 177.730469 C 57.359375 180.128906 57.808594 186.777344 61.386719 185.945312 C 61.386719 185.09375 60.382812 183.644531 59.957031 180.035156 C 59.816406 177.828125 59.980469 175.640625 60.445312 173.480469 C 60.800781 172.144531 61.050781 172.0625 62.230469 171.597656 C 64.191406 170.824219 69.160156 169.28125 70.46875 168.65625 C 70.40625 169.128906 70.28125 169.585938 70.09375 170.027344 C 68.039062 176.777344 74.816406 178.6875 80.96875 181.207031 C 81.871094 181.476562 82.738281 181.832031 83.566406 182.277344 C 79.074219 182.277344 73.785156 184.546875 70.390625 187.089844 C 66.269531 190.175781 70.128906 191.273438 63.503906 189.066406 C 61.894531 188.53125 60.929688 187.761719 59.46875 188.738281 C 59.46875 190.304688 60.953125 190.605469 62.183594 191.089844 C 63.5625 191.601562 64.988281 191.925781 66.453125 192.058594 L 59.988281 202.882812 C 58.980469 204.824219 58.417969 207.03125 57.714844 209.164062 C 57.324219 210.347656 57.597656 209.53125 56.644531 210.191406 C 55.242188 211.167969 54.613281 212.035156 52.773438 212.957031 C 51.480469 213.601562 46.105469 215.601562 44.171875 214.164062 C 42.871094 213.195312 42.566406 211.105469 42.066406 209.628906 C 41.691406 208.507812 41.347656 207.4375 41.027344 206.304688 L 39.21875 199.375 C 39.058594 198.179688 38.761719 197.023438 38.332031 195.898438 C 39.269531 195.210938 40.320312 194.800781 41.472656 194.671875 C 44.230469 194.378906 46.964844 194.265625 49.761719 193.878906 C 51.238281 193.671875 52.355469 193.53125 53.6875 193.261719 C 56.769531 192.644531 58.570312 191.492188 55.808594 191.519531 L 44.96875 192.054688 C 45.578125 191.226562 47.878906 189.503906 48.679688 188.601562 C 49.402344 187.789062 51.078125 185.140625 51.222656 183.976562 C 51.386719 182.675781 49.300781 180.261719 48.183594 179.890625 C 46.613281 179.375 47.285156 181.484375 47.65625 182.027344 C 47.90625 182.390625 48.136719 182.648438 48.402344 183.035156 C 48.761719 183.554688 48.859375 183.703125 48.628906 184.34375 C 48.023438 186.027344 46.734375 187.234375 45.714844 188.609375 C 45.171875 189.339844 44.722656 189.820312 44.195312 190.585938 C 43.628906 191.410156 43.378906 192.148438 42.28125 192.339844 C 39.863281 192.761719 38.449219 192.832031 37.246094 194.464844 C 36.105469 196.015625 37.105469 199.039062 37.105469 200.960938 C 33.699219 200.960938 26.34375 201.601562 23.761719 199.28125 C 21.679688 197.410156 21.535156 194.660156 22.03125 191.648438 C 23.023438 185.667969 25.828125 185.671875 29.773438 182.625 Z M 37.457031 222.269531 C 38.523438 221.984375 41.757812 217.039062 42.347656 216.15625 C 42.828125 216.46875 43.34375 216.714844 43.890625 216.882812 C 47.945312 218.035156 53.632812 215.742188 56.367188 212.886719 L 57.367188 211.613281 C 57.367188 214.253906 58.105469 215.652344 58.589844 217.726562 L 57.019531 219.824219 C 56.597656 220.460938 56.023438 221.414062 55.335938 221.808594 C 54.070312 222.539062 51.25 222.953125 49.410156 223.21875 C 46.269531 223.601562 43.15625 224.15625 40.078125 224.886719 C 35.304688 226.023438 35.371094 225.214844 32.066406 220.847656 C 29.273438 217.148438 29.582031 217.84375 29.601562 214.242188 C 29.53125 212.230469 29.863281 210.289062 30.589844 208.414062 C 31.25 206.707031 32.578125 206.144531 34.492188 205.152344 C 35.394531 204.6875 36.582031 203.824219 37.632812 203.578125 C 37.730469 204.738281 40.011719 211.972656 40.523438 213.261719 C 40.945312 214.246094 41.496094 215.152344 42.171875 215.980469 C 41.238281 216.058594 39.636719 217.960938 39.003906 218.746094 C 37.710938 220.34375 36.488281 221.558594 37.457031 222.269531 Z M 26.695312 203.339844 L 31.695312 203.582031 C 31.035156 204.480469 28.117188 204.765625 27.230469 210.816406 C 27.09375 211.746094 27.367188 211.726562 26.804688 212.140625 L 25.234375 203.058594 C 25.738281 203.097656 26.160156 203.253906 26.695312 203.339844 Z M 30.5 223.113281 C 33.210938 226.785156 34.457031 228.65625 39.25 227.726562 C 40.949219 227.398438 42.296875 227.042969 43.992188 226.707031 C 45.65625 226.378906 47.0625 226.128906 48.8125 225.9375 C 51.097656 225.683594 55.882812 224.988281 57.507812 223.457031 C 58.4375 222.375 59.148438 221.164062 59.636719 219.824219 L 59.988281 219.824219 C 60.140625 220.390625 61.328125 221.78125 61.777344 222.226562 L 72.695312 232.617188 C 73.078125 232.996094 73.382812 233.273438 73.746094 233.660156 C 74.15625 234.105469 74.257812 234.351562 74.703125 234.804688 C 75.472656 235.59375 76.320312 236.023438 76.933594 236.9375 L 65.058594 236.9375 C 64.480469 237.039062 63.902344 237.101562 63.316406 237.117188 C 62.191406 237.066406 62.71875 236.84375 61.566406 237.113281 C 61.191406 235.710938 59.460938 236.175781 58.394531 236.5625 C 57.316406 236.988281 56.34375 237.589844 55.476562 238.359375 C 53.582031 239.804688 52.308594 241.675781 51.652344 243.964844 C 51.363281 245.25 51.367188 246.535156 51.660156 247.816406 C 51.953125 249.101562 52.511719 250.257812 53.328125 251.289062 C 54.226562 252.503906 56.890625 255.269531 58.417969 255.625 L 58.417969 255.976562 C 54.816406 256.816406 55.152344 260.71875 56.785156 263.726562 C 58.609375 267.085938 62.71875 270.269531 66.039062 271.933594 C 67.851562 272.847656 69.261719 272.320312 70.820312 271.699219 C 72.214844 271.140625 73.59375 270.515625 75.074219 270.015625 C 81.308594 267.894531 81.328125 268.6875 87.085938 264.386719 C 89.003906 262.953125 91.992188 260.589844 92.878906 258.476562 C 93.242188 257.617188 93.671875 254.617188 93.425781 253.449219 C 92.46875 248.898438 83.9375 250.035156 79.375 250.035156 C 79.652344 249.71875 79.976562 249.460938 80.347656 249.265625 C 84.675781 246.195312 84.511719 245.789062 83.527344 242.214844 C 83.40625 241.726562 83.246094 241.246094 83.042969 240.78125 C 83.648438 240.921875 84.785156 241.511719 86.296875 241.894531 C 86.90625 242.046875 87.480469 242.046875 88.058594 242.234375 C 90.246094 242.957031 88.460938 242.316406 89.636719 242.589844 C 90.109375 242.699219 90.359375 243.160156 90.800781 243.503906 L 104.046875 254.53125 C 108.761719 257.910156 113.675781 260.976562 118.78125 263.722656 L 132.269531 270.148438 C 140.457031 273.503906 136.023438 272.253906 145.316406 274.566406 C 146.53125 274.871094 147.496094 275.214844 148.648438 275.601562 C 149.773438 275.980469 161.054688 281.886719 163.265625 282.992188 C 165.425781 284.074219 174.074219 287.507812 177.179688 286.019531 C 177.378906 286.765625 177.429688 286.542969 178.402344 286.542969 C 179.03125 289.242188 183.664062 290.921875 186.085938 292.132812 C 188.964844 293.574219 192.011719 295.15625 195.320312 296.171875 C 199.050781 297.183594 202.84375 297.8125 206.703125 298.058594 C 212.101562 298.480469 213.847656 297.820312 216.691406 294.96875 C 221.058594 290.597656 219.476562 292.539062 222.179688 287.179688 C 222.964844 285.617188 223.617188 284.320312 224.453125 282.820312 L 228.007812 276.246094 C 228.398438 275.574219 228.824219 274.808594 229.214844 274.132812 C 230.652344 271.660156 232.160156 267.464844 232.964844 264.609375 C 233.328125 263.324219 234.4375 260.421875 234.460938 259.296875 L 238.109375 260.714844 C 242.585938 262.207031 244.929688 262.664062 249.539062 265.003906 C 255.691406 268.121094 258.890625 267.300781 265.402344 269.921875 C 266.628906 270.417969 267.699219 270.914062 268.925781 271.460938 C 271.457031 272.59375 274.070312 273.472656 276.765625 274.101562 C 279.300781 274.855469 281.632812 276.015625 283.761719 277.585938 L 290.230469 281.597656 C 291.585938 282.210938 292.972656 282.175781 294.890625 282.175781 C 294.03125 283.347656 281.667969 289.832031 279.523438 290.910156 C 269.847656 295.753906 259.839844 299.777344 249.503906 302.980469 C 247.953125 303.457031 246.375 303.804688 244.707031 304.292969 C 241.597656 305.203125 238.140625 305.945312 234.945312 306.582031 C 225.5625 308.457031 216.003906 310.34375 206.332031 311.152344 C 202.875 311.441406 195.054688 312.234375 192.203125 312.21875 C 188.1875 312.195312 184.164062 312.226562 180.144531 312.222656 C 179.023438 312.222656 178.582031 312.03125 177.359375 312.039062 C 176.367188 312.042969 175.378906 312.039062 174.386719 312.042969 L 168.636719 311.679688 C 162.636719 311.226562 153.171875 309.96875 147.390625 308.824219 C 143.949219 308.144531 140.757812 307.3125 137.378906 306.613281 C 134.152344 305.945312 131.105469 304.785156 127.933594 304.007812 C 124.546875 303.175781 121.816406 302.210938 118.601562 301.285156 C 108.65625 298.429688 109.457031 298.691406 100.757812 295.027344 C 99.25 294.390625 98.03125 293.949219 96.609375 293.238281 C 91.53125 290.695312 89.527344 289.503906 84.910156 286.773438 C 84.234375 286.375 83.746094 286.039062 83.078125 285.636719 L 79.445312 283.328125 C 74.839844 280.253906 71.414062 277.753906 67.128906 274.339844 L 54.265625 263.09375 C 51.160156 260.128906 48.257812 256.972656 45.566406 253.628906 L 38.121094 243.085938 C 34.703125 237.378906 30.738281 227.96875 29.25 221.570312 C 29.746094 222.019531 30.164062 222.535156 30.5 223.117188 Z M 293.136719 279.554688 C 291.085938 279.554688 289.695312 278.300781 288.425781 277.457031 L 284.300781 274.765625 C 281.6875 272.945312 278.160156 271.644531 274.625 270.820312 C 274.683594 270.230469 274.621094 269.652344 274.433594 269.089844 C 273.789062 267.34375 274.117188 267.4375 274.109375 265.574219 C 274.105469 264.617188 273.96875 264.445312 273.925781 263.660156 C 273.6875 261.054688 273.773438 258.457031 274.175781 255.875 C 274.410156 254.457031 274.695312 253.625 274.980469 252.441406 C 275.160156 251.699219 274.882812 251.480469 274.207031 252.03125 C 273.875 252.433594 273.605469 252.875 273.398438 253.351562 C 271.914062 256.40625 271.699219 260.035156 271.992188 263.5 C 272.128906 264.355469 272.183594 265.210938 272.160156 266.074219 C 271.8125 268.960938 272.671875 268.210938 273.230469 270.296875 C 270.613281 269.6875 266.898438 267.570312 264.125 266.652344 C 257.824219 264.558594 256.660156 265.542969 249.59375 262.144531 C 246.570312 260.710938 243.4375 259.597656 240.1875 258.804688 C 239.289062 258.578125 238.582031 258.429688 237.675781 258.171875 C 236.800781 257.859375 235.90625 257.648438 234.984375 257.546875 C 234.984375 255.734375 235.148438 254.628906 234.527344 252.761719 C 234.078125 251.386719 233.425781 250.117188 232.574219 248.953125 C 231.0625 246.683594 229.179688 244.785156 226.917969 243.253906 C 225.222656 242.140625 223.105469 241.515625 221.285156 240.503906 C 219.074219 239.277344 214.046875 235.820312 212.105469 235.367188 C 212.160156 231.339844 212.527344 227.339844 213.199219 223.367188 C 213.371094 222.242188 213.847656 220.925781 213.847656 219.648438 C 213.078125 219.667969 213.4375 219.542969 213.039062 219.890625 C 212.046875 220.742188 211.195312 224.863281 210.980469 226.039062 C 210.386719 228.828125 210.121094 231.644531 210.179688 234.496094 C 209.609375 234.402344 209.054688 234.261719 208.507812 234.074219 C 206.238281 233.539062 201.671875 234.285156 200.695312 233.859375 C 198.046875 232.707031 193.457031 227.914062 190.96875 227.335938 C 190.96875 225.140625 191.765625 222.5 192.207031 220.363281 C 192.414062 219.378906 192.71875 218.941406 192.019531 218.429688 C 191.324219 218.613281 191.203125 219.078125 190.914062 219.773438 C 190.652344 220.425781 190.453125 221.097656 190.3125 221.789062 C 190.136719 222.621094 189.765625 225.890625 189.574219 226.289062 C 189.339844 226.519531 181.539062 223.144531 181.308594 223.027344 L 169.605469 216.914062 C 166.171875 215.277344 162.265625 214.699219 159.082031 212.597656 C 158.4375 212.179688 157.773438 211.792969 157.09375 211.445312 C 157.09375 210.75 157.210938 210.183594 157.28125 209.363281 C 157.550781 206.144531 158.109375 201.503906 158.132812 198.339844 C 158.140625 197.542969 158.246094 196.953125 158.324219 196.085938 C 158.394531 195.304688 159.011719 194.507812 158.324219 194.394531 C 156.585938 194.113281 156.203125 202.109375 156.054688 203.945312 C 155.988281 204.722656 156.085938 205.597656 156.046875 206.378906 C 155.921875 207.894531 155.921875 209.40625 156.046875 210.921875 C 155.503906 210.570312 154.941406 210.261719 154.355469 209.992188 C 152.535156 209.085938 150.949219 208.007812 149.179688 206.960938 L 144.242188 203.863281 C 142.5625 202.835938 140.949219 201.714844 139.398438 200.496094 C 138.914062 200.109375 138.449219 199.699219 138.007812 199.261719 C 137.492188 198.742188 137.136719 198.394531 136.589844 197.886719 L 135.253906 196.601562 C 133.8125 195.398438 131.945312 193.804688 129.84375 193.628906 C 129.84375 189.085938 130.054688 185.832031 131.644531 181.804688 C 132.304688 180.132812 132.429688 178.1875 133.105469 176.460938 C 135.488281 170.441406 136.917969 168.804688 142.625 165.367188 C 145.429688 163.679688 149.382812 161.84375 152.894531 161.84375 C 154.082031 161.84375 157.71875 163.957031 158.730469 164.5625 C 161.335938 166.121094 165.257812 166.957031 167.601562 168.441406 C 168.496094 169.007812 169.257812 169.667969 170.148438 170.261719 C 172.058594 171.542969 173.351562 173.019531 175.949219 173.019531 C 175.40625 173.492188 171.21875 175.496094 170.257812 176.0625 C 168.269531 177.234375 164.703125 179.242188 163.597656 181.277344 C 163.253906 181.90625 162.867188 182.804688 163.199219 183.5 C 164.046875 183.273438 164.199219 182.359375 164.808594 181.792969 C 166.851562 179.882812 170.574219 177.980469 173.152344 176.691406 C 174.820312 175.855469 178.679688 173.546875 180.3125 173.546875 C 183.832031 173.546875 189.125 177.199219 191.839844 178.613281 C 194.269531 179.835938 196.589844 181.242188 198.800781 182.828125 C 201.476562 184.808594 206.011719 188.324219 209.304688 189.089844 C 208.839844 189.515625 208.328125 189.875 207.769531 190.171875 L 203.171875 193.433594 C 201.371094 194.867188 198.710938 196.976562 198.652344 199.566406 C 199.359375 199.507812 199.363281 199.277344 199.683594 198.851562 C 199.890625 198.578125 200.304688 198.007812 200.53125 197.78125 C 202.355469 195.964844 204.675781 194.503906 206.789062 193.035156 C 207.574219 192.488281 208.226562 192.140625 209.027344 191.601562 C 211.265625 190.097656 211.300781 189.71875 214.132812 190.550781 C 223.453125 193.273438 225.113281 194.339844 232.808594 197.546875 C 234.453125 198.234375 236.425781 199.347656 238.121094 199.742188 C 237.976562 200.285156 236.199219 202.09375 235.722656 202.582031 C 233.929688 204.453125 232.367188 206.5 231.035156 208.722656 C 230.160156 209.957031 229.726562 211.328125 229.738281 212.84375 L 230.265625 212.84375 C 230.703125 210.960938 233.496094 207.84375 234.632812 206.378906 L 236.511719 204.242188 C 237.605469 203.070312 238.5 201.535156 239.871094 200.613281 C 241.609375 201.019531 246.773438 203.488281 248.730469 204.332031 C 249.277344 204.570312 249.734375 204.765625 250.203125 204.957031 C 250.828125 205.210938 251.199219 205.433594 251.75 205.675781 C 253.675781 206.546875 255.535156 207.539062 257.328125 208.65625 C 261.457031 211.136719 263.300781 212.417969 268.105469 214.820312 C 271.523438 216.527344 276.363281 218.675781 279.484375 220.558594 C 280.710938 221.300781 283.789062 223.382812 285.105469 223.492188 C 284.90625 224.246094 284.242188 224.574219 283.75 225.105469 L 282.382812 226.710938 C 280.59375 228.984375 278.847656 231.195312 277.742188 233.945312 C 276.914062 236 276.898438 236.320312 276.898438 239.210938 C 277.523438 239.042969 277.347656 239.121094 277.585938 238.503906 C 277.746094 238.09375 277.808594 237.75 277.96875 237.316406 C 279.277344 233.769531 281.671875 230.699219 284.015625 227.820312 L 286.199219 225.285156 C 286.621094 224.839844 286.6875 224.980469 286.851562 224.367188 C 288.675781 224.792969 290.636719 224.878906 292.691406 225.164062 C 296.757812 225.726562 299.769531 226.164062 303.328125 227.972656 C 305.316406 228.984375 310.78125 231.523438 311.710938 233.039062 C 312.65625 234.398438 313.511719 235.816406 314.273438 237.289062 C 314.738281 238.328125 316.714844 247.003906 316.714844 248.292969 C 316.714844 251.933594 314.417969 255.425781 313.121094 258.671875 C 311.042969 263.894531 307.976562 272.917969 303.339844 276.132812 C 300.511719 278.09375 296.636719 279.554688 293.136719 279.554688 Z M 318.875 251.5 C 319.988281 247.820312 318.847656 245.238281 318.109375 242.179688 C 317.175781 238.296875 317.238281 236.972656 315.046875 234.066406 C 312.234375 230.335938 307.984375 228.015625 303.910156 225.816406 C 297.597656 222.417969 292.558594 223.242188 288.148438 222.195312 C 286.667969 221.84375 285.445312 220.804688 284.230469 220.519531 L 290.816406 215.234375 C 293.253906 213.394531 295.425781 212.4375 298.128906 210.496094 L 311.796875 200.238281 C 312.988281 199.363281 314.019531 198.617188 315.21875 197.722656 C 316.433594 196.808594 317.351562 196.019531 318.515625 195.082031 C 319.589844 194.179688 320.605469 193.214844 321.566406 192.191406 C 322.589844 191.160156 324.546875 188.097656 324.988281 186.535156 C 325.105469 186.121094 325.152344 185.722656 325.25 185.398438 C 326.359375 181.625 325.730469 182.3125 326.246094 178.886719 C 326.847656 174.902344 325.671875 171.222656 324.625 168.605469 C 321.007812 159.585938 319.53125 155.621094 317.0625 146.300781 C 313.632812 133.339844 312.503906 128.320312 305.046875 116.398438 C 304.292969 115.191406 303.476562 114.027344 302.621094 112.890625 L 296.15625 104.503906 C 295.640625 103.941406 295.214844 103.316406 294.882812 102.632812 C 295.683594 102.816406 303.257812 107.980469 304.558594 108.847656 L 313.863281 115.4375 C 316.4375 117.449219 318.796875 119.6875 320.945312 122.152344 C 327.625 129.328125 333.128906 138.691406 337.496094 147.34375 C 341.609375 155.484375 346.121094 168.398438 347.605469 177.230469 C 349.261719 187.117188 349.359375 196.355469 347.351562 206.273438 C 346.640625 209.78125 345.253906 215.675781 344.007812 218.824219 C 342.457031 222.761719 341.09375 226.488281 339.125 230.007812 L 337.148438 233.796875 C 332.273438 243.167969 326.164062 251.828125 319.53125 260.015625 C 318.03125 261.882812 316.402344 263.632812 314.644531 265.257812 C 313.878906 265.867188 313.195312 266.703125 312.523438 267.152344 C 313.089844 264.71875 318.019531 254.328125 318.875 251.5 Z M 303.234375 118.386719 C 304.648438 120.589844 305.863281 122.894531 307.046875 125.222656 L 308.214844 127.550781 C 310.695312 132.515625 312.234375 137.9375 313.605469 143.464844 C 314.054688 145.265625 314.484375 147.164062 315.03125 149.027344 C 315.3125 150 315.492188 150.816406 315.765625 151.78125 C 316.542969 154.523438 317.292969 157.171875 318.3125 159.894531 C 319.464844 162.972656 322.425781 169.871094 323.144531 172.523438 C 323.980469 175.613281 323.535156 176.5 323.519531 178.949219 C 323.515625 180.046875 323.445312 181.136719 323.300781 182.226562 C 323.175781 183.261719 323.085938 184.132812 322.996094 185.414062 C 322.859375 187.433594 319.992188 190.28125 318.59375 191.664062 L 312.671875 196.394531 C 311.976562 196.921875 311.367188 197.332031 310.652344 197.867188 C 307.40625 200.3125 297.238281 208.242188 294.417969 209.925781 C 292.902344 210.769531 291.4375 211.691406 290.019531 212.6875 L 286.050781 215.703125 C 285.421875 216.238281 284.832031 216.8125 284.273438 217.421875 C 283.667969 218.027344 282.734375 218.570312 282.660156 219.472656 C 281.523438 218.875 280.539062 218.3125 279.394531 217.671875 C 276.058594 215.800781 272.429688 214.183594 269.035156 212.488281 C 264.136719 210.039062 260.582031 207.570312 256.039062 204.875 C 252.367188 202.695312 239.359375 197.464844 234.582031 195.421875 L 227.296875 192.226562 C 227.449219 190.386719 229.453125 187.539062 230.019531 185.519531 L 232.253906 178.148438 C 234.335938 171.894531 236.25 166.289062 237.613281 159.757812 C 238.925781 153.488281 241.503906 150.886719 245.160156 145.996094 L 251.976562 136.046875 C 253.6875 133.039062 255.546875 130.125 257.558594 127.304688 C 261.617188 121.863281 264.179688 114.789062 267.289062 108.570312 L 269.632812 103.753906 C 271.34375 99.609375 273.386719 95.945312 273.960938 91.3125 C 274.058594 90.507812 274.4375 88.898438 274.222656 88.027344 C 274.171875 87.707031 274.015625 87.453125 273.753906 87.261719 C 272.882812 87.84375 272.746094 89.707031 272.496094 90.722656 C 271.839844 93.097656 271.011719 95.414062 270.011719 97.667969 C 267.738281 103.167969 264.492188 108.21875 262.054688 113.640625 C 260.003906 118.199219 258.449219 121.863281 255.367188 125.988281 C 252.609375 129.683594 250.429688 133.867188 247.871094 137.703125 C 247.207031 138.699219 246.613281 139.523438 245.949219 140.5 C 245.613281 140.996094 245.347656 141.316406 244.984375 141.804688 C 242.175781 145.566406 238.117188 150.398438 236.328125 154.628906 C 235.390625 156.835938 234.941406 159.671875 234.355469 162.261719 C 233.765625 164.847656 233.023438 167.175781 232.324219 169.664062 C 230.90625 174.722656 229.054688 179.179688 227.789062 184.335938 C 227.316406 186.257812 226.40625 187.683594 225.789062 189.5 C 225.59375 190.070312 225.40625 190.933594 225.203125 191.355469 C 224.726562 191.214844 224.261719 191.039062 223.808594 190.832031 C 223.371094 190.65625 222.820312 190.507812 222.410156 190.308594 C 222.671875 189.675781 222.828125 189.019531 222.882812 188.335938 C 223.023438 187.460938 223.140625 187.089844 223.300781 186.308594 C 224.953125 178.089844 227.28125 166.1875 231.457031 159.535156 C 231.804688 158.984375 232.074219 158.636719 232.421875 158.054688 C 233.84375 155.667969 238.144531 148.453125 238.757812 146.925781 C 239.722656 144.410156 240.460938 141.828125 240.96875 139.183594 C 241.875 134.707031 240.886719 138.222656 244.621094 132.707031 L 247.558594 128.304688 C 249.558594 125.289062 253.550781 119.085938 255.589844 116.429688 C 258.945312 112.019531 261.699219 107.261719 263.851562 102.160156 L 268.867188 92.328125 C 269.667969 90.726562 270.644531 88.933594 271.289062 87.238281 C 271.441406 86.578125 271.695312 85.960938 272.050781 85.386719 C 275.003906 81.761719 276.214844 83.375 278.648438 86.5625 L 281.664062 90.53125 C 282.667969 91.847656 283.742188 93.101562 284.890625 94.289062 L 286.503906 96.167969 C 286.800781 96.554688 287.023438 96.71875 287.3125 97.105469 C 287.339844 97.140625 287.605469 97.617188 287.628906 97.664062 C 287.761719 98.136719 288.042969 98.496094 288.46875 98.742188 C 289.285156 99.324219 302.136719 116.679688 303.234375 118.386719 Z M 35.363281 259.992188 C 35.820312 260.296875 35.722656 260.078125 35.886719 260.691406 C 35.429688 260.386719 35.523438 260.605469 35.363281 259.992188 Z M 286.269531 301.851562 C 265.519531 312.226562 249.242188 317.652344 225.945312 322.210938 C 221.414062 323.097656 211.546875 324.539062 207.042969 324.789062 L 194.640625 325.660156 C 193.722656 325.613281 192.804688 325.628906 191.890625 325.707031 C 189.5 326.035156 178.894531 325.699219 176.117188 325.664062 C 173.878906 325.636719 168.425781 325.035156 165.996094 324.960938 C 162.742188 324.855469 150.054688 322.980469 147.0625 322.414062 C 138.945312 320.878906 132.988281 319.496094 125.402344 317.351562 C 123.933594 316.933594 122.574219 316.453125 121.25 316.089844 C 118.425781 315.308594 115.875 314.261719 113.144531 313.367188 C 110.183594 312.398438 101.011719 308.699219 97.886719 307.144531 L 90.664062 303.710938 C 78.492188 297.507812 67.144531 290.054688 56.617188 281.351562 L 44.050781 269.820312 L 38.828125 264.214844 C 38.328125 263.585938 36.589844 261.886719 36.410156 261.21875 C 37.332031 261.984375 38.1875 262.8125 38.984375 263.710938 L 52.996094 275.890625 L 62.109375 282.503906 C 71.195312 289.253906 90.144531 298.75 99.679688 302.566406 C 105.675781 304.964844 109.078125 306.199219 115.019531 308.179688 C 120.285156 309.9375 125.726562 311.496094 131.277344 312.882812 C 142.132812 315.597656 155.527344 318.09375 166.851562 319.046875 C 173.195312 319.582031 179.664062 320.253906 186.601562 320.253906 C 188.148438 320.253906 190.441406 320.371094 191.382812 320.332031 C 195.449219 320.15625 200.714844 320.308594 204.941406 320.082031 L 219.449219 318.875 C 221.09375 318.714844 222.582031 318.507812 224.148438 318.332031 C 240.414062 316.546875 259.691406 311.554688 274.777344 306.085938 C 280.207031 304.117188 283.03125 302.773438 287.824219 300.792969 C 288.40625 300.472656 289.011719 300.207031 289.644531 299.996094 C 289.226562 300.558594 287.09375 301.441406 286.269531 301.851562 Z M 289.820312 299.8125 C 289.835938 299.792969 289.871094 299.839844 289.871094 299.863281 Z M 290.171875 299.636719 C 290.1875 299.617188 290.222656 299.664062 290.222656 299.6875 Z M 290.519531 299.460938 L 290.574219 299.511719 C 290.566406 299.511719 290.5 299.484375 290.515625 299.464844 Z M 290.871094 299.285156 C 290.890625 299.269531 290.925781 299.3125 290.925781 299.335938 Z M 369.878906 206.101562 C 367.761719 216.617188 364.40625 225.136719 359.792969 234.4375 C 359.257812 235.519531 358.675781 236.496094 358.113281 237.472656 L 352.554688 246.40625 C 350.679688 249.210938 348.5625 251.820312 346.484375 254.480469 C 345.027344 256.347656 343.246094 257.851562 341.941406 259.542969 C 339.539062 262.652344 332.761719 268.984375 329.859375 271.5625 C 329.558594 271.828125 329.535156 271.800781 329.265625 272.019531 C 328.988281 272.246094 328.902344 272.371094 328.632812 272.609375 C 328.3125 272.898438 328.269531 272.875 327.949219 273.148438 C 321.585938 278.523438 314.832031 283.355469 307.691406 287.644531 L 301.625 291.183594 C 297.496094 293.578125 293.246094 295.734375 288.875 297.644531 L 282.195312 300.570312 C 270.175781 305.933594 250.839844 311.398438 237.878906 313.710938 C 228.695312 315.347656 212.871094 317.613281 203.367188 317.621094 L 195.261719 317.847656 C 193.332031 318.054688 191.40625 318.054688 189.480469 317.847656 L 176 317.40625 C 174.617188 317.214844 172.847656 317.253906 171.3125 317.027344 C 168.289062 316.585938 165.082031 316.457031 162.128906 316.085938 C 145.144531 313.988281 128.542969 310.214844 112.320312 304.769531 C 102.457031 301.511719 93.066406 297.210938 83.800781 292.59375 C 78.203125 289.84375 72.804688 286.742188 67.609375 283.289062 L 64.429688 281.230469 C 63.351562 280.511719 62.480469 279.890625 61.421875 279.171875 C 56.953125 276.140625 52.792969 272.65625 48.609375 269.277344 C 44.992188 266.351562 36.476562 258.105469 34.339844 255.425781 L 25.207031 244.300781 C 21.484375 239.355469 18.210938 234.125 15.394531 228.613281 C 15.085938 228 14.863281 227.574219 14.554688 227.011719 C 12.421875 222.96875 10.605469 218.789062 9.097656 214.476562 C 2.890625 196.71875 0.9375 178.046875 5.222656 158.59375 C 7.53125 148.105469 11.382812 138.21875 16.773438 128.933594 C 17.558594 127.609375 18.167969 126.460938 18.980469 125.199219 C 19.75 123.992188 20.457031 122.894531 21.25 121.707031 C 24.714844 116.414062 28.617188 111.46875 32.964844 106.871094 L 34.355469 105.296875 C 36.21875 103.453125 39.179688 100.191406 41.003906 98.667969 C 45.726562 94.71875 47.421875 92.839844 53.101562 88.585938 C 55.390625 86.871094 57.546875 85.339844 59.914062 83.699219 C 63.488281 81.222656 67.1875 79.089844 70.914062 76.882812 C 71.570312 76.496094 72.132812 76.148438 72.792969 75.792969 L 78.613281 72.710938 C 86.554688 68.738281 94.703125 64.925781 103.273438 62.089844 C 104.726562 61.609375 106.234375 60.984375 107.699219 60.578125 L 116.804688 57.808594 C 126.347656 55.070312 136.035156 52.996094 145.859375 51.582031 C 149.160156 51.105469 152.992188 50.445312 156.390625 50.234375 C 157.15625 50.1875 158.101562 50.105469 158.933594 49.988281 C 159.921875 49.84375 160.8125 49.96875 161.777344 49.859375 C 162.496094 49.78125 163.691406 49.761719 164.527344 49.636719 C 165.449219 49.5 166.367188 49.578125 167.292969 49.4375 L 175.777344 49.011719 C 180.25 49.035156 186.085938 48.527344 190.289062 49.074219 C 190.699219 49.128906 191.929688 49.191406 192.894531 49.1875 C 195.183594 49.175781 199.128906 49.539062 201.285156 49.703125 C 214.273438 50.679688 227.113281 52.625 239.804688 55.546875 L 241.90625 56.0625 C 241.9375 56.074219 242 56.105469 242.023438 56.117188 C 242.0625 56.132812 242.101562 56.152344 242.140625 56.175781 C 240.976562 56.199219 239.878906 56.472656 238.84375 56.996094 C 237.804688 57.523438 236.933594 58.246094 236.226562 59.171875 C 234.242188 61.566406 232.488281 64.117188 230.960938 66.828125 C 230.398438 67.867188 228.769531 70.632812 228.515625 71.71875 C 227.261719 71.613281 225.589844 71.011719 224.253906 70.742188 C 222.6875 70.429688 221.347656 70.300781 219.6875 70.070312 C 217.652344 69.792969 207.488281 68.308594 205.113281 69.449219 C 204.851562 68.46875 203.808594 67.304688 203.265625 66.40625 C 201.09375 62.816406 200.414062 60.402344 196.945312 57.527344 C 193.195312 54.421875 184.980469 54.375 180.441406 55.253906 C 170.671875 57.148438 173.785156 56.820312 162.503906 57.402344 C 159.9375 57.53125 156.757812 58.777344 154.871094 59.722656 C 151.585938 61.378906 148.964844 63.761719 147.003906 66.875 C 146.28125 67.984375 144.617188 67.695312 143.175781 68.109375 C 138.25 69.628906 133.492188 71.566406 128.910156 73.929688 C 126.785156 75.140625 124.734375 76.464844 122.753906 77.902344 C 120.390625 79.535156 117.90625 81.429688 116.101562 83.648438 C 115.429688 84.480469 115.761719 84.386719 114.515625 84.683594 C 110.71875 85.585938 107.21875 87.375 103.878906 89.242188 L 97.246094 92.734375 C 94.9375 93.890625 92.9375 94.929688 90.777344 96.226562 C 85.292969 99.511719 80.703125 102.4375 75.460938 106.054688 C 74.414062 106.777344 73.519531 107.398438 72.488281 108.148438 C 68.605469 110.957031 64.921875 113.921875 61.261719 117.003906 L 58.632812 119.441406 C 57.824219 120.25 56.941406 121.257812 56.09375 121.964844 L 46.515625 132.472656 C 41.433594 139.289062 38.902344 143.054688 34.894531 151.070312 C 30.785156 159.289062 27.386719 167.578125 25.125 176.578125 C 24.722656 177.984375 24.46875 179.417969 24.359375 180.875 C 24.273438 181.640625 24.449219 182.335938 24.886719 182.972656 C 23.28125 183.34375 21.800781 185.101562 21.003906 186.421875 C 19.132812 189.535156 18.554688 195.277344 19.992188 198.515625 C 20.378906 199.320312 20.859375 200.058594 21.441406 200.734375 C 22.074219 201.425781 22.816406 201.964844 23.664062 202.355469 C 23.632812 205.011719 23.851562 207.648438 24.316406 210.265625 C 24.757812 212.886719 25.015625 215.257812 25.621094 217.691406 C 26.179688 219.945312 26.910156 222.050781 27.546875 224.324219 C 29.324219 230.785156 31.832031 236.953125 35.066406 242.820312 L 38.328125 248.117188 C 38.894531 248.976562 39.5 249.796875 40.152344 250.660156 C 43.265625 254.78125 46.324219 258.820312 49.988281 262.480469 C 50.726562 263.222656 51.34375 263.832031 52.082031 264.574219 C 52.875 265.375 53.554688 265.871094 54.351562 266.671875 L 57.757812 269.730469 C 61.734375 273.265625 66.609375 277.53125 70.921875 280.496094 C 76.761719 284.515625 81.816406 288 88.050781 291.484375 C 88.601562 291.792969 89.011719 291.945312 89.535156 292.269531 C 91.371094 293.386719 93.355469 294.144531 95.269531 295.09375 C 99.265625 296.984375 103.347656 298.664062 107.515625 300.136719 L 117.386719 303.367188 C 118.640625 303.738281 119.496094 304.019531 120.699219 304.421875 C 126.273438 306.273438 135.332031 308.609375 141.164062 309.976562 C 147.164062 311.433594 153.230469 312.527344 159.359375 313.261719 C 160.613281 313.398438 161.925781 313.523438 163.277344 313.710938 C 166.617188 314.15625 169.96875 314.414062 173.339844 314.476562 C 174.308594 314.488281 174.449219 314.652344 175.421875 314.667969 C 176.867188 314.683594 178.347656 314.664062 179.792969 314.660156 C 181.425781 314.65625 182.351562 314.835938 183.984375 314.835938 C 191.027344 314.820312 198.351562 314.503906 204.96875 313.8125 C 210.351562 313.253906 215.550781 312.761719 220.859375 311.890625 C 225.933594 311.058594 230.871094 310.085938 235.8125 309.027344 C 249.597656 306.074219 262.867188 301.585938 275.617188 295.5625 L 280.039062 293.347656 C 280.546875 293.082031 280.988281 292.875 281.550781 292.59375 C 287.839844 289.46875 293.828125 285.851562 299.527344 281.75 C 300.011719 281.398438 300.386719 281.101562 300.820312 280.773438 C 301.703125 280.183594 302.617188 279.640625 303.5625 279.148438 C 308.710938 276.054688 308.433594 273.042969 311.074219 271.117188 C 312.957031 269.746094 317.9375 265.511719 319.375 263.875 C 319.8125 263.378906 319.917969 263.15625 320.429688 262.65625 C 321.511719 261.515625 322.527344 260.320312 323.472656 259.0625 C 326.824219 254.898438 329.964844 250.582031 332.886719 246.121094 C 334.097656 244.273438 335.164062 242.488281 336.285156 240.613281 C 336.820312 239.722656 337.363281 238.835938 337.902344 237.863281 L 342.5625 229.078125 C 345.644531 222.734375 347.9375 216.121094 349.441406 209.234375 C 352.511719 195.90625 351.929688 183.355469 348.675781 170.21875 C 347.9375 167.234375 346.984375 164.183594 346.035156 161.335938 C 342.214844 150.382812 337.089844 140.082031 330.65625 130.429688 C 330.273438 129.867188 329.894531 129.347656 329.492188 128.800781 C 327.402344 125.976562 325.296875 123.289062 322.960938 120.660156 C 322.652344 120.3125 322.652344 120.226562 322.347656 119.878906 C 317.511719 114.386719 309.984375 109.347656 303.652344 105.390625 C 302.382812 104.597656 301.261719 103.917969 300.074219 103.027344 C 297.835938 101.347656 295.359375 100.140625 292.910156 98.667969 C 291.078125 97.566406 291.144531 97.832031 289.75 96.066406 C 289.292969 95.488281 288.859375 95.003906 288.386719 94.460938 C 286.601562 92.410156 284.691406 90.453125 283.0625 88.257812 C 281.660156 86.367188 277.976562 80.972656 275.675781 80.972656 C 274.574219 80.878906 273.585938 81.167969 272.707031 81.847656 C 272.707031 75.804688 272.746094 73.890625 268.824219 70.007812 L 265.242188 66.785156 C 264.433594 66.039062 263.789062 65.230469 262.972656 64.511719 C 261.777344 63.417969 260.515625 62.410156 259.183594 61.488281 C 258.683594 61.257812 258.242188 60.941406 257.863281 60.539062 C 260.425781 61.132812 266.25 63.347656 268.867188 64.378906 C 282.582031 69.792969 286.726562 71.863281 299.140625 78.640625 C 303.859375 81.214844 308.289062 84.242188 312.738281 87.222656 C 313.5 87.730469 314.113281 88.210938 314.871094 88.757812 C 321.410156 93.371094 327.539062 98.476562 333.261719 104.074219 L 342.332031 113.511719 C 345.15625 116.871094 347.992188 120.246094 350.488281 123.867188 C 351.558594 125.417969 352.488281 126.789062 353.527344 128.339844 C 359.816406 137.789062 364.546875 147.964844 367.710938 158.867188 C 372.039062 174.515625 373.105469 190.085938 369.878906 206.101562 Z M 369.878906 206.101562 " fill-opacity="1" fill-rule="evenodd"/></g><path fill="#ffffff" d="M 165.472656 98.789062 C 164.886719 100.726562 164.621094 102.480469 164.175781 104.65625 C 162.898438 110.933594 163.574219 114.746094 164.21875 120.652344 L 164.777344 127.082031 C 165.34375 138.527344 164.742188 138.15625 167.53125 149.125 C 169.132812 155.429688 172.042969 160.480469 175.601562 165.859375 L 178.042969 168.832031 C 178.390625 169.117188 178.601562 169.3125 179.019531 169.601562 C 179.394531 169.867188 181.363281 171.023438 181.363281 169.875 C 181.363281 169.234375 180.347656 168.894531 179.214844 167.484375 C 178.519531 166.644531 177.894531 165.757812 177.335938 164.820312 C 176.78125 163.882812 176.1875 162.996094 175.660156 161.957031 L 172.457031 155.902344 C 169.625 150.238281 167.390625 139.792969 167.394531 133.199219 C 167.394531 129.839844 166.859375 123.519531 166.488281 120.128906 C 165.683594 112.757812 165.097656 111.863281 166.394531 104.082031 C 166.988281 100.511719 167.707031 97.535156 169.664062 94.601562 C 170.230469 93.753906 170.707031 92.949219 171.304688 92.054688 C 172.386719 90.429688 174.738281 87.796875 174.902344 87.09375 C 173.828125 87.117188 173.234375 87.726562 172.578125 88.261719 C 170.113281 90.257812 166.375 95.78125 165.472656 98.789062 Z M 165.472656 98.789062 " fill-opacity="1" fill-rule="evenodd"/><path fill="#ffffff" d="M 124.355469 113.035156 L 122.714844 121.875 C 122.105469 126.265625 121.804688 130.683594 121.8125 135.117188 C 121.8125 138.453125 121.699219 141.75 122.234375 145 C 122.4375 146.246094 122.832031 148.796875 124.257812 148.914062 C 124.257812 147.144531 123.90625 146.144531 123.90625 144.375 C 123.90625 133.191406 123.882812 128.574219 125.355469 117.003906 C 125.480469 116.019531 125.597656 115.011719 125.65625 113.8125 C 125.683594 113.179688 125.761719 112.941406 125.847656 112.246094 C 125.964844 111.316406 126.113281 111.527344 125.652344 110.839844 C 124.851562 111.054688 124.652344 111.890625 124.355469 113.035156 Z M 124.355469 113.035156 " fill-opacity="1" fill-rule="evenodd"/><path fill="#ffffff" d="M 277.15625 120.015625 C 276.824219 119.386719 276.910156 119.246094 276.027344 119.222656 C 276.027344 120.242188 276.582031 121.226562 276.898438 122.019531 C 278.53125 126.136719 282.894531 131.9375 285.65625 135.617188 C 286.234375 136.386719 286.703125 137.03125 287.320312 137.792969 L 295.707031 147.917969 C 296.710938 149.105469 300.085938 153.527344 301.347656 153.628906 C 301.214844 152.042969 295.140625 144.691406 293.664062 142.800781 C 293.101562 142.082031 292.578125 141.398438 291.972656 140.652344 C 291.386719 139.933594 290.882812 139.300781 290.347656 138.609375 L 282.1875 128.078125 C 279.195312 124.074219 279.269531 124.042969 277.15625 120.015625 Z M 277.15625 120.015625 " fill-opacity="1" fill-rule="evenodd"/><path fill="#ffffff" d="M 110.746094 154.445312 C 110.300781 155.335938 109.9375 156.003906 109.558594 156.925781 C 108.777344 158.738281 108.136719 160.597656 107.628906 162.503906 C 107.160156 164.355469 106.539062 166.445312 106.136719 168.347656 C 105.8125 169.898438 104.601562 173.574219 106.445312 174.066406 L 112.140625 155.316406 C 112.667969 153.730469 112.953125 153.710938 112.730469 152.761719 C 111.582031 152.785156 111.34375 153.257812 110.746094 154.445312 Z M 110.746094 154.445312 " fill-opacity="1" fill-rule="evenodd"/><path fill="#ffffff" d="M 67.976562 258.902344 C 67.078125 259.070312 66.195312 259.292969 65.328125 259.570312 C 64.089844 259.980469 63.722656 260.449219 64.351562 261.390625 C 65.496094 261.265625 64.234375 261.25 65.46875 260.9375 L 75.75 259.515625 C 77.75 259.125 83.230469 258.328125 84.851562 257.089844 C 85.054688 256.980469 85.214844 256.828125 85.332031 256.625 C 85.445312 256.425781 85.496094 256.207031 85.484375 255.976562 C 84.484375 256.023438 83.492188 256.136719 82.507812 256.316406 L 73.59375 257.710938 C 71.671875 258.085938 69.753906 258.523438 67.976562 258.902344 Z M 67.976562 258.902344 " fill-opacity="1" fill-rule="evenodd"/><path fill="#ffffff" d="M 137.355469 162.539062 C 136.410156 161.25 132.96875 163.5 131.929688 164.101562 C 127.730469 166.523438 122.109375 169.535156 118.386719 172.5625 C 117.921875 172.882812 117.667969 173.328125 117.621094 173.890625 C 118.863281 173.863281 120.460938 172.644531 121.574219 172.082031 C 122.097656 171.820312 122.359375 171.695312 122.824219 171.410156 C 123.613281 170.933594 124.511719 170.457031 125.304688 170.050781 L 136.308594 163.589844 C 136.792969 163.28125 137.183594 163.175781 137.355469 162.539062 Z M 137.355469 162.539062 " fill-opacity="1" fill-rule="evenodd"/><path fill="#ffffff" d="M 60.695312 247.078125 C 59.84375 247.253906 59.191406 247.339844 59.113281 248.292969 C 59.757812 248.722656 59.316406 248.644531 60.6875 248.644531 C 63.867188 248.644531 66.640625 247.9375 69.34375 247.347656 C 70.746094 247.042969 76 246.179688 76.40625 244.449219 C 73.8125 244.449219 69.816406 245.292969 67.277344 245.804688 Z M 60.695312 247.078125 " fill-opacity="1" fill-rule="evenodd"/><path fill="#ffffff" d="M 190.261719 61.8125 C 188.660156 61.484375 187.828125 67.308594 187.828125 69.101562 C 187.828125 72.167969 187.96875 79.136719 190.273438 79.753906 C 190.273438 78.203125 189.917969 77.386719 189.921875 75.914062 C 189.933594 71.90625 189.300781 68.015625 190.3125 63.550781 C 190.417969 63.09375 190.949219 61.953125 190.261719 61.8125 Z M 190.261719 61.8125 " fill-opacity="1" fill-rule="evenodd"/><path fill="#ffffff" d="M 81.269531 170.945312 C 84.089844 171.882812 95.519531 175.289062 97.710938 175.289062 C 99.246094 175.289062 99.175781 174.980469 99.28125 174.589844 C 98.828125 173.96875 98.75 174.316406 97.007812 173.890625 C 94.152344 173.195312 80.222656 169.113281 79.546875 169.875 C 79.628906 170.632812 79.324219 170.296875 81.269531 170.945312 Z M 81.269531 170.945312 " fill-opacity="1" fill-rule="evenodd"/><path fill="#ffffff" d="M 242.625 255.667969 C 242.332031 254.671875 242.078125 253.519531 241.828125 252.449219 C 241.507812 251.09375 240.816406 246.371094 239.871094 246.371094 C 238.925781 246.371094 239.425781 249.109375 239.59375 250.316406 C 239.945312 252.820312 240.101562 255.84375 241.539062 257.976562 C 242.699219 259.695312 243.941406 259.171875 244.238281 258.074219 C 243.613281 257.21875 243.449219 258.496094 242.625 255.667969 Z M 242.625 255.667969 " fill-opacity="1" fill-rule="evenodd"/><path fill="#ffffff" d="M 265.320312 185.988281 C 262.523438 185.453125 255.398438 183.007812 252.644531 181.898438 C 251.929688 181.503906 251.164062 181.28125 250.347656 181.226562 L 250.347656 181.753906 C 250.347656 182.886719 256.53125 184.65625 257.183594 184.875 C 260.796875 186.089844 263.183594 186.816406 266.941406 186.816406 C 267.609375 186.816406 267.003906 186.871094 267.46875 186.640625 C 267.210938 186.003906 267.058594 186.320312 265.320312 185.988281 Z M 265.320312 185.988281 " fill-opacity="1" fill-rule="evenodd"/><path fill="#ffffff" d="M 30.296875 187.511719 C 31.53125 187.511719 39.976562 187.835938 40.601562 186.289062 C 40.105469 186.054688 35.941406 186.296875 34.832031 186.296875 C 33.75 186.296875 33.480469 186.109375 32.398438 186.109375 C 31.097656 186.109375 28.203125 185.601562 28.203125 186.640625 C 28.203125 187.511719 29.164062 187.511719 30.296875 187.511719 Z M 30.296875 187.511719 " fill-opacity="1" fill-rule="evenodd"/><path fill="#ffffff" d="M 53.238281 199.328125 L 49.085938 198.238281 C 48.164062 198.050781 45.527344 197.539062 44.582031 197.777344 C 43.835938 197.964844 43.925781 197.910156 43.742188 198.691406 C 44.746094 199.363281 47.050781 199.453125 48.359375 199.664062 C 50.066406 199.996094 51.785156 200.195312 53.523438 200.261719 C 54.191406 200.261719 53.585938 200.316406 54.050781 200.085938 C 53.898438 199.527344 53.785156 199.550781 53.238281 199.328125 Z M 53.238281 199.328125 " fill-opacity="1" fill-rule="evenodd"/><path fill="#ffffff" d="M 66.199219 162.117188 C 67.394531 160.167969 69.480469 157.824219 67.671875 157.824219 C 67 157.824219 65.535156 160.421875 65.171875 161.085938 C 64.382812 162.511719 63.65625 163.570312 63.65625 165.332031 C 64.558594 165.257812 65.367188 163.476562 66.199219 162.117188 Z M 66.199219 162.117188 " fill-opacity="1" fill-rule="evenodd"/></svg>